HIERARCHY
ROOT root
{
	OFFSET	0	260	24
	CHANNELS 6  Xposition Yposition Zposition Xrotation Yrotation Zrotation
	JOINT spine_3
	{
		OFFSET	0	81.6	10.2
		CHANNELS 3  Xrotation Yrotation Zrotation
		JOINT spine_4
		{
			OFFSET	0	110.4	14.6
			CHANNELS 3  Xrotation Yrotation Zrotation
			JOINT neck_1
			{
				OFFSET	0	71.8	-50.3
				CHANNELS 3  Xrotation Yrotation Zrotation
				JOINT neck_2
				{
					OFFSET	0	86.2	-25.8
					CHANNELS 3  Xrotation Yrotation Zrotation
					JOINT head_ee
					{
						OFFSET	0	179.8	-8.7
						CHANNELS 3  Xrotation Yrotation Zrotation
						End Site
						{
							OFFSET	1	0	0
						}
					}
				}
			}
			JOINT left_clavicle
			{
				OFFSET	-43.2	22.4	-70.8
				CHANNELS 3  Xrotation Yrotation Zrotation
				JOINT left_shoulder
				{
					OFFSET	-93.9	-5.79999	48.7
					CHANNELS 3  Xrotation Yrotation Zrotation
					JOINT left_elbow
					{
						OFFSET	-291.4	-30.8	15.2
						CHANNELS 3  Xrotation Yrotation Zrotation
						JOINT left_lowarm_twist
						{
							OFFSET	-110.7	-3.89999	13.6
							CHANNELS 3  Xrotation Yrotation Zrotation
							JOINT left_hand
							{
								OFFSET	-110.7	-3.89999	13.6
								CHANNELS 3  Xrotation Yrotation Zrotation
								JOINT left_ee
								{
									OFFSET	-80.8	-5.10001	12.1
									CHANNELS 3  Xrotation Yrotation Zrotation
									End Site
									{
										OFFSET	1	0	0
									}
								}
							}
						}
					}
				}
			}
			JOINT right_clavicle
			{
				OFFSET	43.2	22.4	-70.8
				CHANNELS 3  Xrotation Yrotation Zrotation
				JOINT right_shoulder
				{
					OFFSET	93.9	-5.79999	48.7
					CHANNELS 3  Xrotation Yrotation Zrotation
					JOINT right_elbow
					{
						OFFSET	291.4	-30.8	15.2
						CHANNELS 3  Xrotation Yrotation Zrotation
						JOINT right_lowarm_twist
						{
							OFFSET	110.7	-3.89999	13.6
							CHANNELS 3  Xrotation Yrotation Zrotation
							JOINT right_hand
							{
								OFFSET	110.7	-3.89999	13.6
								CHANNELS 3  Xrotation Yrotation Zrotation
								JOINT right_ee
								{
									OFFSET	80.8	-5.10001	12.1
									CHANNELS 3  Xrotation Yrotation Zrotation
									End Site
									{
										OFFSET	1	0	0
									}
								}
							}
						}
					}
				}
			}
		}
	}
	JOINT spine_2
	{
		OFFSET	0	-124.9	-9.1
		CHANNELS 3  Xrotation Yrotation Zrotation
		JOINT spine_1
		{
			OFFSET	0	-112	10
			CHANNELS 3  Xrotation Yrotation Zrotation
			JOINT left_hip
			{
				OFFSET	-82.8	-137.5	0.300001
				CHANNELS 3  Xrotation Yrotation Zrotation
				JOINT left_knee
				{
					OFFSET	-28.2	-396.7	2.2
					CHANNELS 3  Xrotation Yrotation Zrotation
					JOINT left_ankle
					{
						OFFSET	-11.7	-411.3	35.4
						CHANNELS 3  Xrotation Yrotation Zrotation
						JOINT left_toes
						{
							OFFSET	0	-60	-88.6
							CHANNELS 3  Xrotation Yrotation Zrotation
							JOINT left_foot_ee
							{
								OFFSET	-22.5	-16.5	-42.2
								CHANNELS 3  Xrotation Yrotation Zrotation
								End Site
								{
									OFFSET	1	0	0
								}
							}
						}
					}
				}
			}
			JOINT right_hip
			{
				OFFSET	82.8	-137.5	0.300001
				CHANNELS 3  Xrotation Yrotation Zrotation
				JOINT right_knee
				{
					OFFSET	28.2	-396.7	2.2
					CHANNELS 3  Xrotation Yrotation Zrotation
					JOINT right_ankle
					{
						OFFSET	11.7	-411.3	35.4
						CHANNELS 3  Xrotation Yrotation Zrotation
						JOINT right_toes
						{
							OFFSET	0	-60	-88.6
							CHANNELS 3  Xrotation Yrotation Zrotation
							JOINT right_foot_ee
							{
								OFFSET	22.5	-16.5	-42.2
								CHANNELS 3  Xrotation Yrotation Zrotation
								End Site
								{
									OFFSET	1	0	0
								}
							}
						}
					}
				}
			}
		}
	}
}
MOTION
Frames: 8
Frame Time: 0.02
1903.02 944.81 -1346.54 -5.60081 50.8723 4.86612 3.24833 -0.255605 -2.56617 3.23974 -0.657551 -2.49368 -7.70536 9.07053 0.0800769 -7.72556 16.8569 2.02631 -0.0 0.0 -0.0 8.91811 16.9707 16.1294 -5.79463 -25.5809 49.0945 2.47462 -50.7859 1.1748 6.25226 0.177956 -0.77842 -0.428317 -3.38414 -4.31623 -0.0 0.0 -0.0 7.9923 -1.62228 -15.5383 -36.7811 24.3254 -53.2506 0.287296 8.1 -0.0203417 -54.3239 4.58648 -4.88972 -4.3634 -28.4437 12.6046 0.0 0.0 0.0 -3.24639 0.506635 2.52864 -3.2497 0.666462 2.49132 1.57235 -17.8184 2.91652 -14.1327 0.319382 2.13985 42.8638 24.86 -5.42945 -2.42181 0.0 0.0 -0.0 0.0 -0.0 44.4503 30.0366 -12.9175 2.08999 0.0916902 0.30758 -20.2323 -19.1492 -3.09312 -1.88556 0.0 0.0 0.0 0.0 0.0 
1872.67 944.181 -1360.68 -6.1413 50.8742 4.80053 2.87199 -0.294354 -2.25672 2.86546 -0.646981 -2.18197 -7.91673 8.48694 -1.12318 -7.93498 16.6316 0.735165 -0.0 0.0 -0.0 9.08955 17.2644 16.3773 -7.34506 -24.9851 48.8588 2.4079 -50.0173 1.1234 4.53863 0.137655 -0.563236 -0.166724 -3.6874 -2.6832 -0.0 0.0 -0.0 8.06762 -0.969444 -15.7031 -36.67 24.6595 -52.5913 0.345916 9.72376 -0.0294237 -53.9317 4.53918 -4.87257 -4.40415 -27.7354 13.3087 0.0 0.0 0.0 -2.87048 0.543815 2.20993 -2.87293 0.683303 2.17087 1.21063 -17.8148 5.22785 -15.9983 0.321824 2.42606 42.1615 24.6531 -5.35883 -2.9965 0.0 0.0 -0.0 0.0 -0.0 43.9049 30.2217 -13.552 -2.34116 -0.0892903 -0.34817 -19.0676 -17.4142 -2.89887 -0.103358 0.0 0.0 0.0 0.0 0.0 
1854.51 948.331 -1371.79 -5.73323 50.9714 4.19596 2.72891 -0.0966704 -1.99403 2.7236 -0.410316 -1.95377 -8.00349 7.57408 -1.94302 -8.01091 15.5086 -0.268422 -0.0 0.0 -0.0 9.19832 16.198 16.6948 -10.0108 -23.8136 48.7521 2.25948 -48.2148 1.01117 3.33328 0.105459 -0.412633 0.0548699 -2.42517 -0.656667 -0.0 0.0 -0.0 8.19925 -0.693468 -15.9721 -36.1761 25.0857 -52.3653 0.433915 12.1313 -0.0461092 -53.62 4.50167 -4.85871 -4.32031 -27.4207 13.0454 0.0 0.0 0.0 -2.72772 0.327922 1.96927 -2.72977 0.452543 1.94442 0.866987 -16.7821 6.26479 -17.2982 0.318017 2.62546 41.679 25.2108 -5.33344 -2.2046 0.0 0.0 -0.0 0.0 -0.0 44.2507 30.988 -13.7776 -6.04957 -0.201387 -0.90616 -20.6454 -16.7476 -3.13522 -0.46657 0.0 0.0 0.0 0.0 0.0 
1832.16 953.732 -1384.52 -5.62787 51.4105 4.56418 2.59034 0.0955369 -1.69241 2.58638 -0.172908 -1.68626 -7.73386 6.94799 -2.52507 -7.72308 14.7441 -1.02057 -0.0 0.0 -0.0 9.48372 15.6768 17.2471 -12.0505 -22.5931 48.2158 2.14121 -46.6811 0.924037 2.46444 0.0802889 -0.304507 0.218434 -1.51673 0.82349 -0.0 0.0 -0.0 8.2978 -0.31893 -16.1783 -34.5271 25.858 -53.5168 0.483856 13.479 -0.0571787 -53.3027 4.46355 -4.84439 -4.24159 -27.1998 12.7459 0.0 0.0 0.0 -2.58949 0.110096 1.69152 -2.59106 0.217493 1.6811 0.725429 -16.0097 6.29607 -18.1946 0.312757 2.76289 40.9221 25.7172 -5.28004 -1.62165 0.0 0.0 -0.0 0.0 -0.0 43.9661 31.0588 -14.5151 -8.4414 -0.254427 -1.26935 -20.8635 -14.832 -3.15537 -0.313137 0.0 0.0 0.0 0.0 0.0 
1814.25 954.382 -1397.85 -4.94176 51.7184 4.03259 2.56764 0.268961 -1.62056 2.56398 0.00968435 -1.64269 -7.40092 6.42338 -2.75842 -7.37709 13.9268 -1.40808 -0.0 0.0 -0.0 9.1508 15.6598 16.6806 -15.0504 -21.5523 48.3892 2.18423 -47.2494 0.955482 1.84817 0.0614422 -0.228046 0.310955 -0.596023 1.82854 -0.0 0.0 -0.0 8.39607 0.170108 -16.3873 -33.1235 26.5534 -54.0867 0.515109 14.3149 -0.0646851 -53.1464 4.44481 -4.83726 -4.1965 -26.9839 12.6318 0.0 0.0 0.0 -2.5669 -0.0694599 1.64125 -2.5684 0.0351035 1.64234 0.653193 -15.4254 6.05022 -19.6924 0.299172 2.9923 41.38 25.8323 -5.32725 -1.2065 0.0 0.0 -0.0 0.0 -0.0 43.4545 31.1449 -14.6469 -10.3367 -0.28566 -1.55848 -21.8592 -14.8859 -3.30703 0.0679282 -0.0 -0.0 0.0 0.0 0.0 
1789.35 953.214 -1416.13 -4.89136 52.2037 3.73014 2.43187 0.330788 -1.43733 2.429 0.0996632 -1.47152 -2.69758 6.17224 -4.60309 -2.5031 14.7924 -3.95956 -0.0 0.0 -0.0 8.18427 17.775 14.8334 -15.7874 -22.6358 50.4782 2.0247 -45.08 0.840386 0.0104288 0.000367453 -0.0012812 0.469488 1.03715 3.56516 -0.0 0.0 -0.0 7.98168 1.02729 -15.5643 -32.0265 28.8214 -55.7161 0.496462 13.8169 -0.0601532 -52.9009 4.41541 -4.82595 -4.29783 -27.7843 12.6772 0.0 0.0 0.0 -2.43131 -0.146217 1.46763 -2.43251 -0.0525417 1.47396 0.850247 -15.351 5.91368 -21.6123 0.272996 3.28571 40.8434 25.9013 -5.27901 -0.506193 0.0 0.0 -0.0 0.0 -0.0 41.8269 31.6926 -14.4515 -13.0233 -0.313512 -1.96973 -13.8868 -10.8033 -2.08089 1.79886 -0.0 -0.0 0.0 0.0 0.0 
1770.57 957.792 -1429.15 -4.28061 51.7609 3.20657 2.54296 0.381641 -1.13377 2.54122 0.197807 -1.1798 -2.67136 5.43779 -5.12451 -2.47285 13.8689 -4.61181 -0.0 0.0 -0.0 8.79331 19.6461 15.5867 -19.0347 -20.6478 48.9263 1.83808 -42.3147 0.71142 -1.70256 -0.0630917 0.208254 0.438545 0.485966 3.13107 -0.0 0.0 -0.0 8.05209 2.96671 -15.7218 -29.2459 29.6513 -56.7629 0.591626 16.3346 -0.0849109 -53.1885 4.44986 -4.83918 -4.27807 -26.4271 13.463 0.0 0.0 0.0 -2.54264 -0.239645 1.17202 -2.54339 -0.164586 1.18489 2.41884 -14.1638 4.29478 -24.7048 0.210204 3.75606 42.6 25.5877 -5.43127 0.136922 -0.0 -0.0 -0.0 0.0 -0.0 39.8394 32.6512 -14.2262 -12.5461 -0.309974 -1.8966 -15.7662 -9.98011 -2.36529 -0.877995 0.0 0.0 0.0 0.0 0.0 
1740.86 964.09 -1443.72 -4.78677 51.3885 4.02576 2.47611 0.317756 -0.871727 2.47509 0.176101 -0.910967 -0.217998 5.20285 -4.75134 0.00915938 13.1511 -4.56016 -0.0 0.0 -0.0 8.60461 21.5974 15.0319 -19.8665 -19.097 49.9665 1.52914 -37.141 0.513762 -4.84239 -0.19558 0.587097 0.450194 2.4334 4.01014 -0.0 0.0 -0.0 8.05602 2.20512 -15.7261 -28.4923 31.9037 -56.7187 0.630498 17.3453 -0.0961726 -53.572 4.49589 -4.85655 -4.62668 -26.3317 15.5413 0.0 0.0 0.0 -2.47592 -0.206292 0.904609 -2.47637 -0.148314 0.915901 8.32185 -13.8303 3.80017 -32.2034 -0.0466193 4.8774 38.6134 25.686 -5.05473 0.0209242 -0.0 -0.0 -0.0 0.0 -0.0 36.2571 33.3435 -13.1741 -11.8598 -0.303818 -1.79147 -3.03318 -9.43365 -0.446934 1.15713 -0.0 -0.0 0.0 0.0 0.0 
